<svg width="77" height="86" viewBox="0 0 77 86" fill="none" xmlns="http://www.w3.org/2000/svg">
<path d="M0 44.8987C0 43.7851 0.90276 42.8823 2.01637 42.8823H27.919V86H5.04092C2.2569 86 0 83.7431 0 80.9591V44.8987Z" fill="#FF6C7D"/>
<path d="M37.2253 42.8823H63.1279C64.2415 42.8823 65.1443 43.7851 65.1443 44.8987V80.9591C65.1443 83.7431 62.8874 86 60.1034 86H37.2253V42.8823Z" fill="#FF6C7D"/>
<path d="M33.2189 1.28297C37.297 -0.982942 42.4471 1.96932 42.4969 6.5621L42.6033 16.3778C42.6055 16.5787 42.3669 16.7636 42.1188 16.6223L33.3453 11.6223C29.2109 9.26608 29.1795 3.52736 33.2189 1.28297ZM53.1632 10.4457C56.1535 6.95939 61.9964 8.00824 63.6639 12.3654C65.3156 16.6812 61.6028 21.0571 56.9211 20.2045L46.9862 18.3952C46.7054 18.3441 46.6414 18.049 46.7723 17.8965L53.1632 10.4457Z" stroke="#FF6C7D"/>
<path d="M47.9007 22.7662L75.302 32.7395C76.3484 33.1203 76.888 34.2774 76.5071 35.3239L75.2051 38.9011C74.8242 39.9476 73.6671 40.4871 72.6207 40.1062L45.2194 30.133L47.9007 22.7662Z" fill="#FF6C7D"/>
<path d="M8.29541 10.4969C8.67629 9.45041 9.83337 8.91085 10.8798 9.29173L39.1556 19.5833L36.4743 26.95L8.19853 16.6585C7.15208 16.2776 6.61253 15.1205 6.9934 14.0741L8.29541 10.4969Z" fill="#FF6C7D"/>
</svg>
