<svg width="72" height="72" viewBox="0 0 72 72" fill="none" xmlns="http://www.w3.org/2000/svg">
<path d="M4.14941 31.0508C4.14941 29.9462 5.04484 29.0508 6.14941 29.0508H31.8417V71.8184H9.14941C6.38799 71.8184 4.14941 69.5798 4.14941 66.8184V31.0508Z" fill="#FF6C7D"/>
<path d="M41.0725 29.0508H66.7648C67.8694 29.0508 68.7648 29.9462 68.7648 31.0508V66.8184C68.7648 69.5798 66.5262 71.8184 63.7648 71.8184H41.0725V29.0508Z" fill="#FF6C7D"/>
<path d="M20.1047 2.61525C23.1371 -0.8802 28.9388 0.124362 30.5433 4.38823L33.9724 13.5009C34.0426 13.6875 33.8829 13.9408 33.6038 13.8932L23.73 12.2092C19.0772 11.4157 17.1011 6.07751 20.1047 2.61525ZM41.8024 4.38948C43.4069 0.125614 49.2086 -0.878945 52.241 2.61651C55.2446 6.07876 53.2685 11.417 48.6157 12.2105L38.7419 13.8945C38.4628 13.9421 38.3031 13.6887 38.3733 13.5022L41.8024 4.38948Z" stroke="#FF6C7D"/>
<path d="M41.0769 17.6582L70 17.6582C71.1046 17.6582 72 18.5536 72 19.6582V23.4341C72 24.5387 71.1046 25.4341 70 25.4341H41.0769V17.6582Z" fill="#FF6C7D"/>
<path d="M0 19.6582C0 18.5537 0.895431 17.6582 2 17.6582L31.8462 17.6582V25.4341H2C0.895431 25.4341 0 24.5387 0 23.4341L0 19.6582Z" fill="#FF6C7D"/>
</svg>
