<svg width="60" height="42" viewBox="0 0 60 42" fill="none" xmlns="http://www.w3.org/2000/svg">
<path d="M30.0124 1.50522L31.7888 0.439361C32.3866 0.0806836 33.0883 -0.0649229 33.7794 0.0262772C35.3148 0.22887 36.4619 1.53842 36.4606 3.08706L36.4604 3.30678C36.4594 4.52624 35.7929 5.64793 34.7223 6.23187L31.5669 7.95302C30.8864 8.3242 30.3419 8.90255 30.0124 9.60416C29.6388 8.89981 29.0665 8.32077 28.3666 7.93899L25.2873 6.25939C24.1895 5.66059 23.5169 4.49998 23.543 3.24977L23.5475 3.03755C23.5795 1.5085 24.7216 0.231141 26.2375 0.0288858C26.9336 -0.0639913 27.6407 0.0822011 28.2429 0.443533L30.0124 1.50522Z" fill="#FF6C7D"/>
<path d="M41.8914 5.82459L43.6678 4.75873C44.2656 4.40005 44.9673 4.25444 45.6584 4.34564C47.1938 4.54824 48.3409 5.85779 48.3396 7.40643L48.3394 7.62614C48.3384 8.84561 47.6719 9.9673 46.6013 10.5512L43.4459 12.2724C42.7654 12.6436 42.2209 13.2219 41.8914 13.9235C41.5178 13.2192 40.9455 12.6401 40.2456 12.2584L37.1663 10.5788C36.0685 9.97996 35.3959 8.81935 35.422 7.56914L35.4265 7.35691C35.4585 5.82787 36.6006 4.55051 38.1165 4.34825C38.8126 4.25538 39.5197 4.40157 40.1219 4.7629L41.8914 5.82459Z" fill="#FF6C7D"/>
<path d="M18.1344 5.82459L19.9108 4.75873C20.5086 4.40005 21.2103 4.25444 21.9014 4.34564C23.4367 4.54824 24.5839 5.85779 24.5826 7.40643L24.5824 7.62614C24.5814 8.84561 23.9149 9.9673 22.8443 10.5512L19.6889 12.2724C19.0084 12.6436 18.4639 13.2219 18.1344 13.9235C17.7608 13.2192 17.1885 12.6401 16.4886 12.2584L13.4093 10.5788C12.3115 9.97996 11.6389 8.81935 11.665 7.56914L11.6695 7.35691C11.7015 5.82787 12.8435 4.55051 14.3595 4.34825C15.0556 4.25538 15.7627 4.40157 16.3649 4.7629L18.1344 5.82459Z" fill="#FF6C7D"/>
<circle cx="13.1353" cy="23.7501" r="6.51908" stroke="#FF6C7D"/>
<path d="M0.501364 39.1922V39.1922C0.501364 38.1987 1.0292 37.2801 1.88747 36.7799L4.5798 35.2107C9.34619 32.4326 15.1793 32.1963 20.1548 34.5796V34.5796" stroke="#FF6C7D"/>
<circle cx="29.9816" cy="22.3465" r="7.9229" stroke="#FF6C7D"/>
<path d="M17.347 41.9998V41.9998C17.347 40.8224 17.905 39.7147 18.8511 39.0139L19.6094 38.4522C25.7709 33.8881 34.1918 33.8881 40.3533 38.4522L41.1116 39.0139C42.0577 39.7147 42.6157 40.8224 42.6157 41.9998V41.9998" stroke="#FF6C7D"/>
<circle cx="46.8276" cy="23.7501" r="6.51908" stroke="#FF6C7D"/>
<path d="M59.4616 39.1922V39.1922C59.4616 38.1987 58.9337 37.2801 58.0755 36.7799L55.3831 35.2107C50.6167 32.4326 44.7837 32.1963 39.8081 34.5796V34.5796" stroke="#FF6C7D"/>
</svg>
