<svg width="20" height="20" viewBox="0 0 20 20" fill="none" xmlns="http://www.w3.org/2000/svg">
<g clip-path="url(#clip0_104_2413)">
<path d="M4.0625 8.75H0.937501C0.419727 8.75 0 9.16973 0 9.6875V19.0625C0 19.5803 0.419727 20 0.937501 20H4.0625C4.58028 20 5 19.5803 5 19.0625V9.6875C5 9.16973 4.58028 8.75 4.0625 8.75ZM2.5 18.4375C1.98223 18.4375 1.5625 18.0178 1.5625 17.5C1.5625 16.9822 1.98223 16.5625 2.5 16.5625C3.01778 16.5625 3.4375 16.9822 3.4375 17.5C3.4375 18.0178 3.01778 18.4375 2.5 18.4375ZM15 3.18172C15 4.83859 13.9856 5.76797 13.7001 6.875H17.6737C18.9783 6.875 19.9939 7.95883 20 9.14445C20.0033 9.84516 19.7052 10.5995 19.2406 11.0662L19.2363 11.0705C19.6206 11.9821 19.5581 13.2595 18.8727 14.1748C19.2118 15.1863 18.8701 16.4288 18.2328 17.095C18.4007 17.7824 18.3205 18.3674 17.9927 18.8384C17.1954 19.9839 15.2194 20 13.5484 20L13.4373 20C11.5511 19.9993 10.0074 19.3125 8.76696 18.7607C8.14364 18.4834 7.32864 18.1401 6.71028 18.1287C6.45481 18.1241 6.25 17.9156 6.25 17.6601V9.30969C6.25 9.18469 6.30008 9.06473 6.38899 8.97684C7.93641 7.44777 8.6018 5.82891 9.87012 4.55844C10.4484 3.97906 10.6587 3.10391 10.862 2.25758C11.0357 1.53488 11.3991 0 12.1875 0C13.125 0 15 0.3125 15 3.18172Z" fill="#EE47F3"/>
</g>
<defs>
<clipPath id="clip0_104_2413">
<rect width="20" height="20" fill="white"/>
</clipPath>
</defs>
</svg>
