<svg width="52" height="22" viewBox="0 0 52 22" fill="none" xmlns="http://www.w3.org/2000/svg">
<path d="M49 8V10H50V12H49V14H34V8H49ZM49.5 6H33.5C32.6716 6 32 6.67156 32 7.5V14.5C32 15.3284 32.6716 16 33.5 16H49.5C50.3284 16 51 15.3284 51 14.5V14H51.25C51.6642 14 52 13.6642 52 13.25V8.75C52 8.33578 51.6642 8 51.25 8H51V7.5C51 6.67156 50.3284 6 49.5 6ZM45 9H35V13H45V9Z" fill="white"/>
<path d="M19.8409 7.84C14.3044 2.71906 5.69341 2.72094 0.159036 7.84C-0.0490891 8.0325 -0.0531516 8.35844 0.148098 8.55813L1.2181 9.61969C1.40997 9.81032 1.71872 9.81438 1.9181 9.63157C6.4781 5.45406 13.5212 5.45313 18.0822 9.63157C18.2815 9.81438 18.5903 9.81 18.7822 9.61969L19.8522 8.55813C20.0531 8.35844 20.049 8.0325 19.8409 7.84ZM9.99998 14C8.89529 14 7.99998 14.8953 7.99998 16C7.99998 17.1047 8.89529 18 9.99998 18C11.1047 18 12 17.1047 12 16C12 14.8953 11.1047 14 9.99998 14ZM16.3334 11.3878C12.7315 8.2025 7.26435 8.20594 3.66654 11.3878C3.45091 11.5784 3.44404 11.9094 3.64873 12.1113L4.72498 13.1734C4.91248 13.3584 5.21435 13.3709 5.41404 13.1984C8.03748 10.9306 11.9684 10.9356 14.5856 13.1984C14.7853 13.3709 15.0872 13.3588 15.2747 13.1734L16.3509 12.1113C16.5559 11.9094 16.5487 11.5781 16.3334 11.3878Z" fill="white"/>
</svg>
