<svg width="40" height="40" viewBox="0 0 40 40" fill="none" xmlns="http://www.w3.org/2000/svg">
<path d="M15.8094 10.9631C16.4776 10.1928 17.7517 10.4252 18.0983 11.3461L18.88 13.4236L16.6044 13.0355L16.5203 13.5284L16.6044 13.0355C15.5736 12.8597 15.17 11.7002 15.8094 10.9631ZM21.9017 11.3465C22.2483 10.4255 23.5224 10.1932 24.1906 10.9634C24.83 11.7005 24.4264 12.86 23.3956 13.0358L21.12 13.4239L21.9017 11.3465Z" stroke="#618AA9" stroke-opacity="0.68"/>
<path d="M11.1538 19.1201C11.1538 18.5678 11.6016 18.1201 12.1538 18.1201H18.8462V30H13.1538C12.0493 30 11.1538 29.1046 11.1538 28V19.1201Z" fill="#618AA9" fill-opacity="0.68"/>
<path d="M21.4103 18.1201H28.1026C28.6549 18.1201 29.1026 18.5678 29.1026 19.1201V28C29.1026 29.1046 28.2071 30 27.1026 30H21.4103V18.1201Z" fill="#618AA9" fill-opacity="0.68"/>
<path d="M21.4103 15L29 15C29.5523 15 30 15.4477 30 16V16.16C30 16.7123 29.5523 17.16 29 17.16H21.4103V15Z" fill="#618AA9" fill-opacity="0.68"/>
<path d="M10 16C10 15.4477 10.4477 15 11 15L18.8462 15V17.16H11C10.4477 17.16 10 16.7123 10 16.16V16Z" fill="#618AA9" fill-opacity="0.68"/>
</svg>
