<svg width="40" height="40" viewBox="0 0 40 40" fill="none" xmlns="http://www.w3.org/2000/svg">
<circle cx="12.8916" cy="14.1465" r="2.46194" stroke="#618AA9" stroke-opacity="0.68"/>
<path d="M7.56055 20.6627V20.6627C7.56055 20.2435 7.78329 19.8559 8.14546 19.6448L9.28157 18.9826C11.2929 17.8103 13.7544 17.7106 15.854 18.7163V18.7163" stroke="#618AA9" stroke-opacity="0.68"/>
<circle cx="20.0006" cy="13.5543" r="3.05432" stroke="#618AA9" stroke-opacity="0.68"/>
<path d="M14.6689 21.8475V21.8475C14.6689 21.3507 14.9044 20.8832 15.3036 20.5875L15.6236 20.3505C18.2237 18.4245 21.7772 18.4245 24.3772 20.3505L24.6972 20.5875C25.0965 20.8832 25.3319 21.3507 25.3319 21.8475V21.8475" stroke="#618AA9" stroke-opacity="0.68"/>
<circle cx="27.1094" cy="14.1465" r="2.46194" stroke="#618AA9" stroke-opacity="0.68"/>
<path d="M32.4404 20.6627V20.6627C32.4404 20.2435 32.2177 19.8559 31.8555 19.6448L30.7194 18.9826C28.7081 17.8103 26.2466 17.7106 24.147 18.7163V18.7163" stroke="#618AA9" stroke-opacity="0.68"/>
<path d="M18.5859 25.1397L18.7328 24.9374L18.5859 25.1397C18.6254 25.1684 18.642 25.2193 18.6269 25.2658L18.5454 25.5164L18.3825 26.0178L18.2196 26.5191L18.1382 26.7698L18.0975 26.8951C18.0098 27.1649 18.3186 27.3892 18.5481 27.2225L18.6547 27.145L18.8679 26.9901L19.2944 26.6803L19.7208 26.3704L19.9341 26.2155C19.9736 26.1868 20.0271 26.1868 20.0666 26.2155L20.2798 26.3704L20.7063 26.6803L21.1328 26.9901L21.346 27.145L21.4526 27.2225C21.6821 27.3892 21.9909 27.1649 21.9032 26.8951L21.8625 26.7698L21.781 26.5191L21.6182 26.0178L21.4553 25.5164L21.3738 25.2658C21.3587 25.2193 21.3753 25.1684 21.4148 25.1397L21.628 24.9848L22.0545 24.6749L22.4809 24.3651L22.6942 24.2102L22.8008 24.1327C23.0303 23.966 22.9123 23.603 22.6287 23.603H22.4969H22.2333H21.7062H21.179H20.9155C20.8666 23.603 20.8233 23.5715 20.8082 23.5251L20.7268 23.2744L20.5639 22.7731L20.401 22.2717L20.3195 22.0211L20.2788 21.8957C20.1912 21.626 19.8095 21.626 19.7218 21.8957L19.6811 22.0211L19.5997 22.2717L19.4368 22.7731L19.2739 23.2744L19.1924 23.5251C19.1773 23.5715 19.1341 23.603 19.0852 23.603H18.8216H18.2945H17.7674H17.5038H17.372C17.0884 23.603 16.9704 23.966 17.1999 24.1327L17.3065 24.2102L17.5197 24.3651L17.9462 24.6749L18.3727 24.9848L18.5859 25.1397Z" stroke="#618AA9" stroke-opacity="0.68" stroke-width="0.5"/>
<path d="M25.1162 26.5909L25.2631 26.3886L25.1162 26.5909C25.1557 26.6196 25.1722 26.6705 25.1571 26.7169L25.0757 26.9676L24.9128 27.4689L24.7499 27.9703L24.6685 28.2209L24.6277 28.3463C24.5401 28.616 24.8489 28.8404 25.0783 28.6736L25.1849 28.5962L25.3982 28.4413L25.8246 28.1314L26.2511 27.8216L26.4643 27.6667C26.5038 27.6379 26.5574 27.6379 26.5969 27.6667L26.8101 27.8216L27.2366 28.1314L27.663 28.4413L27.8763 28.5962L27.9829 28.6736C28.2124 28.8404 28.5211 28.616 28.4335 28.3463L28.3928 28.2209L28.3113 27.9703L28.1484 27.4689L27.9855 26.9676L27.9041 26.7169C27.889 26.6705 27.9055 26.6196 27.945 26.5909L28.1583 26.4359L28.5847 26.1261L29.0112 25.8163L29.2244 25.6613L29.331 25.5839C29.5605 25.4171 29.4426 25.0542 29.1589 25.0542H29.0271H28.7636H28.2364H27.7093H27.4457C27.3969 25.0542 27.3536 25.0227 27.3385 24.9762L27.2571 24.7256L27.0942 24.2242L26.9313 23.7229L26.8498 23.4722L26.8091 23.3469C26.7214 23.0771 26.3398 23.0771 26.2521 23.3469L26.2114 23.4722L26.13 23.7229L25.9671 24.2242L25.8042 24.7256L25.7227 24.9762C25.7076 25.0227 25.6643 25.0542 25.6155 25.0542H25.3519H24.8248H24.2976H24.0341H23.9023C23.6186 25.0542 23.5007 25.4171 23.7302 25.5839L23.8368 25.6613L24.05 25.8163L24.4765 26.1261L24.9029 26.4359L25.1162 26.5909Z" stroke="#618AA9" stroke-opacity="0.68" stroke-width="0.5"/>
<path d="M31.6455 28.042L31.7924 27.8398L31.6455 28.042C31.685 28.0707 31.7015 28.1216 31.6864 28.1681L31.605 28.4188L31.4421 28.9201L31.2792 29.4214L31.1978 29.6721L31.157 29.7974C31.0694 30.0672 31.3781 30.2915 31.6076 30.1248L31.7142 30.0474L31.9275 29.8924L32.3539 29.5826L32.7804 29.2728L32.9936 29.1178C33.0331 29.0891 33.0867 29.0891 33.1262 29.1178L33.3394 29.2728L33.7659 29.5826L34.1923 29.8924L34.4056 30.0474L34.5122 30.1248C34.7417 30.2916 35.0504 30.0672 34.9628 29.7974L34.9221 29.6721L34.8406 29.4214L34.6777 28.9201L34.5148 28.4188L34.4334 28.1681C34.4183 28.1216 34.4348 28.0707 34.4743 28.042L34.6876 27.8871L35.114 27.5773L35.5405 27.2674L35.7537 27.1125L35.8603 27.035C36.0898 26.8683 35.9719 26.5053 35.6882 26.5053H35.5564H35.2929H34.7657H34.2386H33.975C33.9262 26.5053 33.8829 26.4739 33.8678 26.4274L33.7863 26.1767L33.6235 25.6754L33.4606 25.1741L33.3791 24.9234L33.3384 24.7981C33.2507 24.5283 32.8691 24.5283 32.7814 24.7981L32.7407 24.9234L32.6592 25.1741L32.4964 25.6754L32.3335 26.1767L32.252 26.4274C32.2369 26.4739 32.1936 26.5053 32.1448 26.5053H31.8812H31.3541H30.8269H30.5634H30.4316C30.1479 26.5053 30.03 26.8683 30.2595 27.035L30.3661 27.1125L30.5793 27.2674L31.0058 27.5773L31.4322 27.8871L31.6455 28.042Z" stroke="#618AA9" stroke-opacity="0.68" stroke-width="0.5"/>
<path d="M12.0556 26.5909L12.2026 26.3886L12.0556 26.5909C12.0951 26.6196 12.1117 26.6705 12.0966 26.7169L12.0151 26.9676L11.8522 27.4689L11.6894 27.9703L11.6079 28.2209L11.5672 28.3463C11.4795 28.616 11.7883 28.8404 12.0178 28.6736L12.1244 28.5962L12.3376 28.4413L12.7641 28.1314L13.1905 27.8216L13.4038 27.6667C13.4433 27.6379 13.4968 27.6379 13.5363 27.6667L13.7496 27.8216L14.176 28.1314L14.6025 28.4413L14.8157 28.5962L14.9223 28.6736C15.1518 28.8404 15.4606 28.616 15.3729 28.3463L15.3322 28.2209L15.2508 27.9703L15.0879 27.4689L14.925 26.9676L14.8435 26.7169C14.8284 26.6705 14.845 26.6196 14.8845 26.5909L15.0977 26.4359L15.5242 26.1261L15.9507 25.8163L16.1639 25.6613L16.2705 25.5839C16.5 25.4171 16.382 25.0542 16.0984 25.0542H15.9666H15.703H15.1759H14.6488H14.3852C14.3363 25.0542 14.293 25.0227 14.278 24.9762L14.1965 24.7256L14.0336 24.2242L13.8707 23.7229L13.7893 23.4722L13.7485 23.3469C13.6609 23.0771 13.2792 23.0771 13.1916 23.3469L13.1509 23.4722L13.0694 23.7229L12.9065 24.2242L12.7436 24.7256L12.6622 24.9762C12.6471 25.0227 12.6038 25.0542 12.5549 25.0542H12.2914H11.7642H11.2371H10.9735H10.8417C10.5581 25.0542 10.4401 25.4171 10.6696 25.5839L10.7762 25.6613L10.9895 25.8163L11.4159 26.1261L11.8424 26.4359L12.0556 26.5909Z" stroke="#618AA9" stroke-opacity="0.68" stroke-width="0.5"/>
<path d="M5.52632 28.042L5.67327 27.8398L5.52632 28.042C5.56585 28.0707 5.58239 28.1216 5.56729 28.1681L5.48584 28.4188L5.32295 28.9201L5.16006 29.4214L5.07861 29.6721L5.03789 29.7974C4.95023 30.0672 5.25901 30.2915 5.48849 30.1248L5.5951 30.0474L5.80833 29.8924L6.23479 29.5826L6.66125 29.2728L6.87448 29.1178C6.91401 29.0891 6.96753 29.0891 7.00705 29.1178L7.22028 29.2728L7.64674 29.5826L8.0732 29.8924L8.28643 30.0474L8.39304 30.1248C8.62253 30.2916 8.9313 30.0672 8.84364 29.7974L8.80292 29.6721L8.72147 29.4214L8.55858 28.9201L8.39569 28.4188L8.31424 28.1681C8.29914 28.1216 8.31568 28.0707 8.35521 28.042L8.56844 27.8871L8.99489 27.5773L9.42135 27.2674L9.63458 27.1125L9.7412 27.035C9.97069 26.8683 9.85274 26.5053 9.56908 26.5053H9.4373H9.17373H8.6466H8.11947H7.8559C7.80705 26.5053 7.76375 26.4739 7.74865 26.4274L7.66721 26.1767L7.50432 25.6754L7.34142 25.1741L7.25998 24.9234L7.21925 24.7981C7.1316 24.5283 6.74993 24.5283 6.66228 24.7981L6.62155 24.9234L6.54011 25.1741L6.37722 25.6754L6.21432 26.1767L6.13288 26.4274C6.11778 26.4739 6.07448 26.5053 6.02563 26.5053H5.76206H5.23493H4.7078H4.44423H4.31245C4.02879 26.5053 3.91085 26.8683 4.14033 27.035L4.24695 27.1125L4.46018 27.2674L4.88664 27.5773L5.3131 27.8871L5.52632 28.042Z" stroke="#618AA9" stroke-opacity="0.68" stroke-width="0.5"/>
</svg>
