<svg width="26" height="26" viewBox="0 0 26 26" fill="none" xmlns="http://www.w3.org/2000/svg">
<path d="M24.1429 10.2143H15.7857V1.85714C15.7857 0.831652 14.9541 0 13.9286 0H12.0714C11.0459 0 10.2143 0.831652 10.2143 1.85714V10.2143H1.85714C0.831652 10.2143 0 11.0459 0 12.0714V13.9286C0 14.9541 0.831652 15.7857 1.85714 15.7857H10.2143V24.1429C10.2143 25.1683 11.0459 26 12.0714 26H13.9286C14.9541 26 15.7857 25.1683 15.7857 24.1429V15.7857H24.1429C25.1683 15.7857 26 14.9541 26 13.9286V12.0714C26 11.0459 25.1683 10.2143 24.1429 10.2143Z" fill="#FF6C7D"/>
</svg>
