<svg width="12" height="12" viewBox="0 0 12 12" fill="none" xmlns="http://www.w3.org/2000/svg">
<path d="M3.34299 7.01877L3.65023 6.59589L3.34299 7.01878C3.3955 7.05692 3.41747 7.12455 3.39741 7.18627L3.24642 7.65098L2.94443 8.5804L2.64245 9.50981L2.49145 9.97452L2.41596 10.2069C2.23572 10.7616 2.87062 11.2229 3.34249 10.88L3.54014 10.7364L3.93545 10.4492L4.72605 9.87482L5.51666 9.30041L5.91197 9.01321C5.96448 8.97506 6.03558 8.97506 6.08809 9.0132L6.48339 9.30041L6.79063 8.87752L6.48339 9.30041L7.274 9.87482L8.06461 10.4492L8.45991 10.7364L8.65756 10.88C9.12944 11.2229 9.76433 10.7616 9.58409 10.2069L9.5086 9.97452L9.35761 9.50981L9.05562 8.5804L8.75363 7.65098L8.60264 7.18627C8.58259 7.12455 8.60456 7.05692 8.65707 7.01878L9.05237 6.73157L9.84298 6.15716L10.6336 5.58275L11.0289 5.29554L11.2265 5.15194C11.6984 4.8091 11.4559 4.06274 10.8726 4.06274H10.6283H10.1397H9.16246H8.18521H7.69659C7.63169 4.06274 7.57416 4.02094 7.55411 3.95922L7.05698 4.12074L7.55411 3.95922L7.40311 3.49451L7.10113 2.56509L6.79914 1.63568L6.64815 1.17097L6.57265 0.938615C6.39242 0.383895 5.60764 0.383899 5.4274 0.938615L5.3519 1.17097L5.20091 1.63568L4.89892 2.56509L4.59694 3.49451L4.44595 3.95922C4.42589 4.02094 4.36837 4.06274 4.30346 4.06274H3.81484H2.83759H1.86035H1.37173H1.12741C0.544156 4.06274 0.301633 4.8091 0.773511 5.15194L0.971163 5.29554L1.12741 5.08048L0.971163 5.29554L1.36647 5.58275L2.15708 6.15716L2.94768 6.73157L3.34299 7.01877ZM2.728 10.0343C2.72823 10.0341 2.72847 10.0339 2.7287 10.0338L2.728 10.0343Z" stroke="#FFC107"/>
</svg>
