<svg width="20" height="20" viewBox="0 0 20 20" fill="none" xmlns="http://www.w3.org/2000/svg">
<path d="M5.80939 0.963095C6.47761 0.192829 7.75171 0.425201 8.09826 1.34613L8.88001 3.4236L6.60437 3.03549L6.52031 3.52837L6.60437 3.03549C5.57363 2.85969 5.16996 1.70017 5.80939 0.963095ZM11.9017 1.34648C12.2483 0.425549 13.5224 0.193177 14.1906 0.963444C14.83 1.70051 14.4264 2.86004 13.3956 3.03584L11.12 3.42394L11.9017 1.34648Z" stroke="#FF6C7D"/>
<path d="M1.15385 9.12011C1.15385 8.56782 1.60156 8.12011 2.15385 8.12011H8.84615V20H3.15385C2.04928 20 1.15385 19.1046 1.15385 18V9.12011Z" fill="#FF6C7D"/>
<path d="M11.4103 8.12011H18.1026C18.6549 8.12011 19.1026 8.56782 19.1026 9.12011V18C19.1026 19.1046 18.2071 20 17.1026 20H11.4103V8.12011Z" fill="#FF6C7D"/>
<path d="M11.4103 5.00001L19 5C19.5523 5 20 5.44772 20 6V6.15998C20 6.71227 19.5523 7.15998 19 7.15998H11.4103V5.00001Z" fill="#FF6C7D"/>
<path d="M0 6.00001C0 5.44772 0.447715 5.00001 1 5.00001L8.84615 5.00001V7.15998H1C0.447715 7.15998 0 6.71227 0 6.15998V6.00001Z" fill="#FF6C7D"/>
</svg>
