<svg width="33" height="21" viewBox="0 0 33 21" fill="none" xmlns="http://www.w3.org/2000/svg">
<circle cx="9.27373" cy="4.21498" r="2.51085" stroke="#FF6C7D"/>
<path d="M3.85462 10.8388V10.8388C3.85462 10.4127 4.08103 10.0187 4.44919 9.80408L5.60407 9.13096C7.64862 7.93931 10.1507 7.83792 12.285 8.86025V8.86025" stroke="#FF6C7D"/>
<circle cx="16.5001" cy="3.61302" r="3.11302" stroke="#FF6C7D"/>
<path d="M11.0804 12.0432V12.0432C11.0804 11.5381 11.3198 11.063 11.7256 10.7624L12.0509 10.5214C14.6939 8.56364 18.306 8.56364 20.949 10.5214L21.2743 10.7624C21.6801 11.063 21.9195 11.5381 21.9195 12.0432V12.0432" stroke="#FF6C7D"/>
<circle cx="23.7263" cy="4.21498" r="2.51085" stroke="#FF6C7D"/>
<path d="M29.1454 10.8388V10.8388C29.1454 10.4127 28.919 10.0187 28.5508 9.80408L27.3959 9.13096C25.3514 7.93931 22.8493 7.83792 20.715 8.86025V8.86025" stroke="#FF6C7D"/>
<path d="M15.062 15.3897L15.2114 15.1841L15.062 15.3897C15.1022 15.4189 15.119 15.4706 15.1037 15.5179L15.0209 15.7727L14.8553 16.2823L14.6897 16.7919L14.6069 17.0467L14.5655 17.1741C14.4764 17.4483 14.7903 17.6764 15.0236 17.5069L15.132 17.4282L15.3487 17.2707L15.7822 16.9557L16.2157 16.6408L16.4325 16.4833C16.4726 16.4541 16.527 16.4541 16.5672 16.4833L16.784 16.6408L17.2175 16.9557L17.651 17.2707L17.8677 17.4282L17.9761 17.5069C18.2094 17.6764 18.5232 17.4483 18.4341 17.1741L18.3928 17.0467L18.31 16.7919L18.1444 16.2823L17.9788 15.7727L17.896 15.5179C17.8807 15.4706 17.8975 15.4189 17.9376 15.3897L18.1544 15.2322L18.5879 14.9173L19.0214 14.6023L19.2382 14.4448L19.3465 14.3661C19.5798 14.1966 19.4599 13.8276 19.1716 13.8276H19.0376H18.7697H18.2339H17.698H17.4301C17.3804 13.8276 17.3364 13.7957 17.3211 13.7484L17.2383 13.4936L17.0727 12.984L16.9071 12.4744L16.8243 12.2196L16.7829 12.0922C16.6938 11.818 16.3059 11.818 16.2168 12.0922L16.1754 12.2196L16.0926 12.4744L15.927 12.984L15.7614 13.4936L15.6786 13.7484C15.6633 13.7957 15.6193 13.8276 15.5696 13.8276H15.3017H14.7658H14.23H13.9621H13.8281C13.5398 13.8276 13.4199 14.1966 13.6532 14.3661L13.7615 14.4448L13.9783 14.6023L14.4118 14.9173L14.8453 15.2322L15.062 15.3897Z" stroke="#FF6C7D" stroke-width="0.5"/>
<path d="M21.7002 16.8648L21.8495 16.6593L21.7002 16.8649C21.7403 16.894 21.7572 16.9458 21.7418 16.993L21.659 17.2478L21.4934 17.7574L21.3278 18.267L21.2451 18.5218L21.2037 18.6492C21.1146 18.9235 21.4284 19.1515 21.6617 18.982L21.7701 18.9033L21.9868 18.7458L22.4203 18.4309L22.8538 18.1159L23.0706 17.9584C23.1108 17.9292 23.1652 17.9292 23.2053 17.9584L23.4221 18.1159L23.8556 18.4309L24.2891 18.7458L24.5058 18.9033L24.6142 18.982C24.8475 19.1515 25.1614 18.9235 25.0723 18.6492L25.0309 18.5218L24.9481 18.267L24.7825 17.7574L24.6169 17.2478L24.5341 16.993C24.5188 16.9458 24.5356 16.894 24.5758 16.8649L24.7925 16.7074L25.226 16.3924L25.6595 16.0775L25.8763 15.92L25.9846 15.8412C26.2179 15.6718 26.098 15.3028 25.8097 15.3028H25.6757H25.4078H24.872H24.3361H24.0682C24.0186 15.3028 23.9745 15.2708 23.9592 15.2236L23.8764 14.9688L23.7108 14.4591L23.5452 13.9495L23.4624 13.6947L23.4211 13.5673C23.3319 13.2931 22.944 13.2931 22.8549 13.5673L22.8135 13.6947L22.7307 13.9495L22.5651 14.4591L22.3995 14.9688L22.3167 15.2236C22.3014 15.2708 22.2574 15.3028 22.2077 15.3028H21.9398H21.404H20.8681H20.6002H20.4662C20.1779 15.3028 20.058 15.6718 20.2913 15.8412L20.3997 15.92L20.6164 16.0775L21.0499 16.3924L21.4834 16.7074L21.7002 16.8648Z" stroke="#FF6C7D" stroke-width="0.5"/>
<path d="M28.3373 18.34L28.4867 18.1344L28.3373 18.34C28.3775 18.3692 28.3943 18.4209 28.3789 18.4681L28.2961 18.723L28.1306 19.2326L27.965 19.7422L27.8822 19.997L27.8408 20.1244C27.7517 20.3986 28.0656 20.6267 28.2988 20.4572L28.4072 20.3784L28.624 20.221L29.0575 19.906L29.491 19.591L29.7077 19.4336C29.7479 19.4044 29.8023 19.4044 29.8425 19.4336L30.0592 19.591L30.4927 19.906L30.9262 20.221L31.143 20.3784L31.2513 20.4572C31.4846 20.6267 31.7985 20.3986 31.7094 20.1244L31.668 19.997L31.5852 19.7422L31.4196 19.2326L31.254 18.723L31.1712 18.4681C31.1559 18.4209 31.1727 18.3692 31.2129 18.34L31.4296 18.1825L31.8631 17.8676L32.2966 17.5526L32.5134 17.3951L32.6218 17.3164C32.8551 17.1469 32.7352 16.7779 32.4468 16.7779H32.3129H32.0449H31.5091H30.9733H30.7053C30.6557 16.7779 30.6117 16.7459 30.5963 16.6987L30.5135 16.4439L30.3479 15.9343L30.1824 15.4247L30.0996 15.1699L30.0582 15.0425C29.9691 14.7682 29.5811 14.7682 29.492 15.0425L29.4506 15.1699L29.3678 15.4247L29.2022 15.9343L29.0367 16.4439L28.9539 16.6987C28.9385 16.7459 28.8945 16.7779 28.8448 16.7779H28.5769H28.0411H27.5052H27.2373H27.1034C26.815 16.7779 26.6951 17.1469 26.9284 17.3164L27.0368 17.3951L27.2535 17.5526L27.687 17.8676L28.1205 18.1825L28.3373 18.34Z" stroke="#FF6C7D" stroke-width="0.5"/>
<path d="M8.42393 16.8648L8.5733 16.6593L8.42393 16.8649C8.4641 16.894 8.48091 16.9458 8.46557 16.993L8.38278 17.2478L8.21719 17.7574L8.05161 18.267L7.96882 18.5218L7.92742 18.6492C7.83832 18.9235 8.15219 19.1515 8.38547 18.982L8.49384 18.9033L8.71059 18.7458L9.14409 18.4309L9.5776 18.1159L9.79435 17.9584C9.83452 17.9292 9.88893 17.9292 9.9291 17.9584L10.1459 18.1159L10.5794 18.4309L11.0129 18.7458L11.2296 18.9033L11.338 18.982C11.5713 19.1515 11.8851 18.9235 11.796 18.6492L11.7546 18.5218L11.6718 18.267L11.5063 17.7574L11.3407 17.2478L11.2579 16.993C11.2425 16.9458 11.2593 16.894 11.2995 16.8649L11.5163 16.7074L11.9498 16.3924L12.3833 16.0775L12.6 15.92L12.7084 15.8412C12.9417 15.6718 12.8218 15.3028 12.5334 15.3028H12.3995H12.1316H11.5957H11.0599H10.792C10.7423 15.3028 10.6983 15.2708 10.683 15.2236L10.6002 14.9688L10.4346 14.4591L10.269 13.9495L10.1862 13.6947L10.1448 13.5673C10.0557 13.2931 9.66774 13.2931 9.57864 13.5673L9.53724 13.6947L9.45445 13.9495L9.28887 14.4591L9.12329 14.9688L9.04049 15.2236C9.02515 15.2708 8.98114 15.3028 8.93147 15.3028H8.66356H8.12772H7.59188H7.32396H7.19C6.90166 15.3028 6.78177 15.6718 7.01504 15.8412L7.12342 15.92L7.34017 16.0775L7.77367 16.3924L8.20717 16.7074L8.42393 16.8648Z" stroke="#FF6C7D" stroke-width="0.5"/>
<path d="M1.7868 18.34L1.93617 18.1344L1.7868 18.34C1.82698 18.3692 1.84379 18.4209 1.82844 18.4681L1.74565 18.723L1.58007 19.2326L1.41448 19.7422L1.33169 19.997L1.2903 20.1244C1.20119 20.3986 1.51507 20.6267 1.74834 20.4572L1.85672 20.3784L2.07347 20.221L2.50697 19.906L2.94047 19.591L3.15722 19.4336C3.1974 19.4044 3.2518 19.4044 3.29198 19.4336L3.50873 19.591L3.94223 19.906L4.37573 20.221L4.59248 20.3784L4.70086 20.4572C4.93414 20.6267 5.248 20.3986 5.1589 20.1244L5.11751 19.997L5.03471 19.7422L4.86913 19.2326L4.70355 18.723L4.62076 18.4681C4.60541 18.4209 4.62222 18.3692 4.6624 18.34L4.87915 18.1825L5.31265 17.8676L5.74615 17.5526L5.9629 17.3951L6.07128 17.3164C6.30456 17.1469 6.18466 16.7779 5.89632 16.7779H5.76236H5.49444H4.95861H4.42277H4.15485C4.10519 16.7779 4.06118 16.7459 4.04583 16.6987L3.96304 16.4439L3.79746 15.9343L3.63187 15.4247L3.54908 15.1699L3.50769 15.0425C3.41858 14.7682 3.03062 14.7682 2.94151 15.0425L2.90012 15.1699L2.81733 15.4247L2.65174 15.9343L2.48616 16.4439L2.40337 16.6987C2.38802 16.7459 2.34401 16.7779 2.29435 16.7779H2.02643H1.49059H0.954753H0.686834H0.552875C0.264531 16.7779 0.144641 17.1469 0.377918 17.3164L0.486293 17.3951L0.703044 17.5526L1.13655 17.8676L1.57005 18.1825L1.7868 18.34Z" stroke="#FF6C7D" stroke-width="0.5"/>
</svg>
