<svg width="29" height="20" viewBox="0 0 29 20" fill="none" xmlns="http://www.w3.org/2000/svg">
<path d="M14.5144 0.714543L15.358 0.208372C15.6419 0.0380372 15.9751 -0.0311105 16.3033 0.0122C17.0324 0.10841 17.5772 0.730311 17.5766 1.46575L17.5765 1.57009C17.576 2.14921 17.2595 2.6819 16.7511 2.95921L15.2526 3.77658C14.9294 3.95285 14.6708 4.22751 14.5144 4.5607C14.337 4.2262 14.0652 3.95122 13.7328 3.76991L12.2705 2.97228C11.7491 2.68791 11.4297 2.13674 11.4421 1.54302L11.4442 1.44224C11.4594 0.716101 12.0018 0.109489 12.7217 0.0134388C13.0523 -0.0306682 13.3881 0.0387579 13.674 0.210353L14.5144 0.714543Z" fill="#FF6C7D"/>
<path d="M20.156 2.76532L20.9996 2.25915C21.2835 2.08882 21.6167 2.01967 21.9449 2.06298C22.674 2.15919 23.2188 2.78109 23.2182 3.51653L23.2181 3.62088C23.2176 4.2 22.9011 4.73268 22.3927 5.00999L20.8942 5.82736C20.571 6.00363 20.3124 6.27829 20.156 6.61148C19.9786 6.27699 19.7068 6.002 19.3744 5.82069L17.9121 5.02306C17.3907 4.73869 17.0713 4.18752 17.0837 3.5938L17.0858 3.49302C17.101 2.76688 17.6434 2.16027 18.3633 2.06422C18.6939 2.02011 19.0297 2.08954 19.3156 2.26113L20.156 2.76532Z" fill="#FF6C7D"/>
<path d="M8.87374 2.76532L9.71736 2.25915C10.0012 2.08882 10.3345 2.01967 10.6627 2.06298C11.3918 2.15919 11.9366 2.78109 11.936 3.51653L11.9359 3.62088C11.9354 4.2 11.6189 4.73268 11.1105 5.00999L9.61196 5.82736C9.2888 6.00363 9.03022 6.27829 8.87374 6.61148C8.69634 6.27699 8.42456 6.002 8.09216 5.82069L6.62983 5.02306C6.10849 4.73869 5.78905 4.18752 5.80147 3.5938L5.80358 3.49302C5.81878 2.76688 6.36115 2.16027 7.08106 2.06422C7.41165 2.02011 7.74743 2.08954 8.03342 2.26113L8.87374 2.76532Z" fill="#FF6C7D"/>
<circle cx="6.50033" cy="11.2786" r="2.83333" stroke="#FF6C7D"/>
<path d="M0.5 18.6123V18.6123C0.5 18.1405 0.750668 17.7043 1.15826 17.4667L2.43683 16.7215C4.70037 15.4022 7.47047 15.29 9.83333 16.4218V16.4218" stroke="#FF6C7D"/>
<circle cx="14.5" cy="10.6123" r="3.5" stroke="#FF6C7D"/>
<path d="M8.5 19.9456V19.9456C8.5 19.3865 8.76498 18.8605 9.21427 18.5277L9.57439 18.2609C12.5005 16.0934 16.4995 16.0934 19.4256 18.2609L19.7857 18.5277C20.235 18.8605 20.5 19.3865 20.5 19.9456V19.9456" stroke="#FF6C7D"/>
<circle cx="22.5003" cy="11.2786" r="2.83333" stroke="#FF6C7D"/>
<path d="M28.5 18.6123V18.6123C28.5 18.1405 28.2493 17.7043 27.8417 17.4667L26.5632 16.7215C24.2996 15.4022 21.5295 15.29 19.1667 16.4218V16.4218" stroke="#FF6C7D"/>
</svg>
