<svg width="40" height="40" viewBox="0 0 40 40" fill="none" xmlns="http://www.w3.org/2000/svg">
<path d="M20.0144 10.7692L20.858 10.2631C21.1419 10.0927 21.4751 10.0236 21.8033 10.0669C22.5324 10.1631 23.0772 10.785 23.0766 11.5204L23.0765 11.6248C23.076 12.2039 22.7595 12.7366 22.2511 13.0139L20.7526 13.8313C20.4294 14.0075 20.1708 14.2822 20.0144 14.6154C19.837 14.2809 19.5652 14.0059 19.2328 13.8246L17.7705 13.027C17.2491 12.7426 16.9297 12.1914 16.9421 11.5977L16.9442 11.4969C16.9594 10.7708 17.5018 10.1642 18.2217 10.0681C18.5523 10.024 18.8881 10.0934 19.174 10.265L20.0144 10.7692Z" fill="#618AA9" fill-opacity="0.68"/>
<path d="M25.656 12.82L26.4996 12.3138C26.7835 12.1435 27.1167 12.0744 27.4449 12.1177C28.174 12.2139 28.7188 12.8358 28.7182 13.5712L28.7181 13.6756C28.7176 14.2547 28.4011 14.7874 27.8927 15.0647L26.3942 15.882C26.071 16.0583 25.8124 16.333 25.656 16.6662C25.4786 16.3317 25.2068 16.0567 24.8744 15.8754L23.4121 15.0777C22.8907 14.7934 22.5713 14.2422 22.5837 13.6485L22.5858 13.5477C22.601 12.8216 23.1434 12.215 23.8633 12.1189C24.1939 12.0748 24.5297 12.1442 24.8156 12.3158L25.656 12.82Z" fill="#618AA9" fill-opacity="0.68"/>
<path d="M14.3737 12.82L15.2174 12.3138C15.5012 12.1435 15.8345 12.0744 16.1627 12.1177C16.8918 12.2139 17.4366 12.8358 17.436 13.5712L17.4359 13.6756C17.4354 14.2547 17.1189 14.7874 16.6105 15.0647L15.112 15.882C14.7888 16.0583 14.5302 16.333 14.3737 16.6662C14.1963 16.3317 13.9246 16.0567 13.5922 15.8754L12.1298 15.0777C11.6085 14.7934 11.289 14.2422 11.3015 13.6485L11.3036 13.5477C11.3188 12.8216 11.8611 12.215 12.5811 12.1189C12.9117 12.0748 13.2474 12.1442 13.5334 12.3158L14.3737 12.82Z" fill="#618AA9" fill-opacity="0.68"/>
<circle cx="12.0003" cy="21.3333" r="2.83333" stroke="#618AA9" stroke-opacity="0.68"/>
<path d="M6 28.667V28.667C6 28.1952 6.25067 27.759 6.65826 27.5214L7.93683 26.7762C10.2004 25.4569 12.9705 25.3447 15.3333 26.4765V26.4765" stroke="#618AA9" stroke-opacity="0.68"/>
<circle cx="20" cy="20.667" r="3.5" stroke="#618AA9" stroke-opacity="0.68"/>
<path d="M14 30.0003V30.0003C14 29.4412 14.265 28.9152 14.7143 28.5823L15.0744 28.3156C18.0005 26.1481 21.9995 26.1481 24.9256 28.3156L25.2857 28.5823C25.735 28.9152 26 29.4412 26 30.0003V30.0003" stroke="#618AA9" stroke-opacity="0.68"/>
<circle cx="28.0003" cy="21.3333" r="2.83333" stroke="#618AA9" stroke-opacity="0.68"/>
<path d="M34 28.667V28.667C34 28.1952 33.7493 27.759 33.3417 27.5214L32.0632 26.7762C29.7996 25.4569 27.0295 25.3447 24.6667 26.4765V26.4765" stroke="#618AA9" stroke-opacity="0.68"/>
</svg>
